# xmcd
#
# Track frame offsets: 
#        150
#        26915
#        50941
#        92817
#        132037
#        159429
#
# Disc length: 2485 seconds
#
# Revision: 0
# Processed by: cddbd v1.5.2PL0 Copyright (c) Steve Scherf et al.
# Submitted via: ExactAudioCopyFreeDBPlugin 1.0
#
DISCID=4d09b306
DTITLE=John Lee Hooker - Born In Mississippi, Raised Up In Tennessee
DYEAR=2013
DGENRE=Blues
TTITLE0=Born In Mississippi, Raised Up In Tennessee 
TTITLE1=How Many More Years You Gonna Dog Me Round
TTITLE2=Going Down
TTITLE3=Younger Stud 
TTITLE4=King Of The World 
TTITLE5=Tell Me You Love Me
EXTD=
EXTT0=
EXTT1=
EXTT2=
EXTT3=
EXTT4=
EXTT5=
PLAYORDER=
